# xmcd
#
# Track frame offsets:
#	210
#	22362
#	47976
#	70532
#	87199
#	100251
#	122590
#	138852
#	153450
#	174229
#	201913
#	223399
#
# Disc length: 3380 seconds
#
# Revision: 1
# Processed by: cddbd v1.4PL0 Copyright (c) Steve Scherf et al.
# Submitted via: audiograbber 1.81.03
#
DISCID=ab0d320c
DTITLE=Jake Matson - Comin' Home
DYEAR=2000
DGENRE=Blues
TTITLE0=Goin' To Take Some Time
TTITLE1=Death's Limousine
TTITLE2=Savannah Town
TTITLE3=Ramble On
TTITLE4=Crossroad Blues
TTITLE5=Blind Willie's Medley
TTITLE6=Deployment Blues
TTITLE7=Raise Up Mama
TTITLE8=Preachin' Blues
TTITLE9=Vacaville Prison Blues
TTITLE10=Little Bird
TTITLE11=You Gonna Need Somebody On Your Bond
EXTD=
EXTT0=
EXTT1=
EXTT2=
EXTT3=
EXTT4=
EXTT5=
EXTT6=
EXTT7=
EXTT8=
EXTT9=
EXTT10=
EXTT11=
PLAYORDER=
